<svg version="1.1"
  width="1200" height="3000" viewBox="-100 0 1200 3000"
  xmlns="http://www.w3.org/2000/svg">

  <rect x="-100" y="0" width="1200" height="3000" fill="#f0f0f0"/>

  <g stroke="#00a1a1">
    <path d="M 0 30 V 2960" stroke="#003ba1"/>
    <path d="M 100 30 V 2960"/>
    <path d="M 200 30 V 2960"/>
    <path d="M 300 30 V 2960"/>
    <path d="M 400 30 V 2960"/>
    <path d="M 500 30 V 2960" stroke="#003ba1"/>
    <path d="M 600 30 V 2960"/>
    <path d="M 700 30 V 2960"/>
    <path d="M 800 30 V 2960"/>
    <path d="M 900 30 V 2960"/>
    <path d="M 1000 30 V 2960" stroke="#003ba1"/>
  </g>

  <g id="chartArea" stroke="#575757" stroke-width="2">

  </g>

  <g id="labelArea" stroke="#ffffff" stroke-width="3" paint-order="stroke" style="font-family: Century, sans-serif; font-size: 16px;">

  </g>

  <g>
    <path class="popup" d="M 0 0 l -10 -10 l -60 0 l 0 -50 l 140 0 l 0 50 l -60 0 l -10 10" stroke="#000" fill="#fff" transform="translate(0, 0)" display="none"></path>
    <text class="popup" id="popupText1" x="0" y="-40" text-anchor="middle" font-family="Yu Gothic, sans-serif" font-size="14px" display="none">---市</text>
    <text class="popup" id="popupText2" x="0" y="-20" text-anchor="middle" font-family="Yu Gothic, sans-serif" font-size="14px" display="none">123,456人(12.3%)</text>
  </g>

</svg>
