<svg version="1.1"
  width="1200" height="100" viewBox="-100 0 1200 100"
  xmlns="http://www.w3.org/2000/svg">

  <rect x="-100" y="0" width="1200" height="100" fill="#f0f0f0"/>

  <g stroke="#aaa" stroke-width="10" stroke-linecap="round">
    <path d="M 0 50 h 1000"/>

    <path d="M 0 40 v 20"/>
    <path d="M 100 40 v 20"/>
    <path d="M 200 40 v 20"/>
    <path d="M 300 40 v 20"/>
    <path d="M 400 40 v 20"/>
    <path d="M 500 40 v 20"/>
    <path d="M 600 40 v 20"/>
    <path d="M 700 40 v 20"/>
    <path d="M 800 40 v 20"/>
    <path d="M 900 40 v 20"/>
    <path d="M 1000 40 v 20"/>
  </g>

  <g>
    <text x="0" y="90" text-anchor="middle">1970年</text>
    <text x="100" y="90" text-anchor="middle">1975年</text>
    <text x="200" y="90" text-anchor="middle">1980年</text>
    <text x="300" y="90" text-anchor="middle">1985年</text>
    <text x="400" y="90" text-anchor="middle">1990年</text>
    <text x="500" y="90" text-anchor="middle">1995年</text>
    <text x="600" y="90" text-anchor="middle">2000年</text>
    <text x="700" y="90" text-anchor="middle">2005年</text>
    <text x="800" y="90" text-anchor="middle">2010年</text>
    <text x="900" y="90" text-anchor="middle">2015年</text>
    <text x="1000" y="90" text-anchor="middle">2020年</text>
  </g>

  <g class="clickArea" fill-opacity="0">
    <rect x="-20" y="20" width="40" height="70" year="1970"/>
    <rect x="80" y="20" width="40" height="70" year="1975"/>
    <rect x="180" y="20" width="40" height="70" year="1980"/>
    <rect x="280" y="20" width="40" height="70" year="1985"/>
    <rect x="380" y="20" width="40" height="70" year="1990"/>
    <rect x="480" y="20" width="40" height="70" year="1995"/>
    <rect x="580" y="20" width="40" height="70" year="2000"/>
    <rect x="680" y="20" width="40" height="70" year="2005"/>
    <rect x="780" y="20" width="40" height="70" year="2010"/>
    <rect x="880" y="20" width="40" height="70" year="2015"/>
    <rect x="980" y="20" width="40" height="70" year="2020"/>
  </g>

  <path id="slideKnob" d="M -10 30 l 20 0 l 0 40 l -20 0 l 0 -40" fill="#05a" style="cursor: pointer;"></path>

</svg>
